# xmcd CD database file generated by OrangeCD 6.2
#
# Track frame offsets:
#	183
#	13110
#	25475
#	39138
#	55685
#	68085
#	80545
#	93245
#	106350
#	120483
#	133010
#	145303
#	156480
#	167680
#	179290
#	191963
#	204093
#	215920
#	233228
#	252358
#
# Disc length: 3537 seconds
#
# Revision: 1
# Processed by: cddbd v1.5.2PL0 Copyright (c) Steve Scherf et al.
# Submitted via: OrangeCD 6.2
#
DISCID=1a0dcf14
DTITLE=Various Artist - Rhythm and Blues - Best Hit 20 Vol. 2
DYEAR=1900
DGENRE=R&B
TTITLE0=Stevie Wonder - A Place In The Sun
TTITLE1=Otis Redding - Dock Of The Bay
TTITLE2=Ben E. King - Stand By Me
TTITLE3=Ray Charles - Georgia On My Mind
TTITLE4=Supremes - You Keep Me Hungin' On
TTITLE5=James Brown - It's A Man's Man's World
TTITLE6=The Miracles - Ooo Baby Baby
TTITLE7=Otis Redding - For Your Precious Love
TTITLE8=Eddy Floyd - Knock On Wood
TTITLE9=Otis Reddings - Satisfaction
TTITLE10=Sam Cooke - Twistin' The Night Away
TTITLE11=Aretha Franklin - Respect
TTITLE12=Wilson Pickett - In The Midnight Hour
TTITLE13=Supremes - Where Did Our Love Go
TTITLE14=Otis Redding - Day Tripper
TTITLE15=The Kingsmen - Louie Louie
TTITLE16=Ray Charles - Hallelujah I Love Her So
TTITLE17=Otis Redding - Try a Little Tenderness
TTITLE18=Ray Charles - I Can't Stop Loving Yur
TTITLE19=Supremes - Stop In The Name Of Love
EXTD=
EXTT0=
EXTT1=
EXTT2=
EXTT3=
EXTT4=
EXTT5=
EXTT6=
EXTT7=
EXTT8=
EXTT9=
EXTT10=
EXTT11=
EXTT12=
EXTT13=
EXTT14=
EXTT15=
EXTT16=
EXTT17=
EXTT18=
EXTT19=
PLAYORDER=
